#!OML:ASF H:\GeneralSubjects\Female5\Project 1\Capture day 1\Session 1\Female5.ASF
:FULLY-SPECIFIED
:DEGREES
253
root 7.27142 16.0138 3.91961 -253.723 -67.0134 -113.401
lowerback 26.1606 1.26771 -7.98232
upperback -1.65588 0.512783 10.6905
thorax -16.7128 1.48042 16.855
lowerneck -10.8693 -11.5547 -14.4756
upperneck 35.5345 -21.2438 11.7079
head 18.0663 -10.1888 3.22353
rclavicle 1.74185e-014 -1.70955e-014
rhumerus -61.3479 28.2951 -52.4144
rradius 50.1843
rwrist 0.338519
rhand -25.6593 -15.6683
rfingers 7.12502
rthumb 0.874759 -45.6463
lclavicle 1.74185e-014 -1.70955e-014
lhumerus -14.9662 -34.886 45.7922
lradius 105.48
lwrist -14.7457
lhand -28.687 19.6138
lfingers 7.12502
lthumb -2.04945 49.5837
rfemur -44.8333 -8.47294 -4.21926
rtibia 18.9869
rfoot 325.591 -16.6226
rtoes 32.7452
lfemur 4.04785 -16.1248 -14.7849
ltibia 19.9318
lfoot -24.7951 -1.17988
ltoes -49.2007
254
root 7.25868 16.0215 3.92543 -253.751 -67.4929 -113.076
lowerback 25.2662 1.28743 -9.09485
upperback -1.83195 0.224954 10.3524
thorax -16.3391 1.43323 17.2115
lowerneck -11.4395 -11.494 -14.3747
upperneck 36.5928 -21.1455 11.0876
head 18.6706 -10.1794 2.91979
rclavicle -5.725e-014 9.26337e-014
rhumerus -60.9029 27.7967 -52.5665
rradius 48.259
rwrist -1.56828
rhand -25.6335 -15.9501
rfingers 7.12502
rthumb 0.899682 -45.928
lclavicle -5.725e-014 9.26337e-014
lhumerus -12.9233 -33.1675 47.2256
lradius 101.969
lwrist -14.4048
lhand -29.6624 19.2852
lfingers 7.12502
lthumb -2.99146 49.244
rfemur -39.686 -30.1357 11.975
rtibia -2.88477
rfoot 351.561 -4.30886
rtoes 39.5988
lfemur 3.94701 -15.823 -15.0239
ltibia 19.3389
lfoot -24.5608 -1.32059
ltoes -49.1842
255
root 7.23671 16.0408 3.91886 -253.827 -67.8901 -112.419
lowerback 24.2088 1.18847 -10.1913
upperback -2.17637 -0.170602 10.1469
thorax -16.0375 1.35915 17.7822
lowerneck -10.94 -11.3159 -14.6109
upperneck 36.8114 -20.7993 10.8021
head 18.5785 -10.1495 2.94969
rclavicle -1.6201e-014 1.39944e-013
rhumerus -60.3102 27.8934 -52.7705
rradius 46.279
rwrist -3.46625
rhand -25.8273 -15.6355
rfingers 7.12502
rthumb 0.712567 -45.614
lclavicle -1.6201e-014 1.39944e-013
lhumerus -11.6831 -31.3663 49.3271
lradius 98.2786
lwrist -14.3387
lhand -30.9969 19.5319
lfingers 7.12502
lthumb -4.28018 49.4686
rfemur -75.5773 -44.3436 46.4011
rtibia 5.30487
rfoot 375.272 12.1292
rtoes 35.1185
lfemur 3.30327 -15.5058 -14.9514
ltibia 19.2011
lfoot -24.2678 -2.08105
ltoes -48.6
256
root 7.20585 16.0536 3.90717 -255.01 -68.1479 -110.561
lowerback 23.4429 0.878443 -10.7964
upperback -2.75456 -0.70841 10.0095
thorax -16.1033 1.22674 18.2216
lowerneck -9.81518 -11.024 -15.0462
upperneck 36.542 -20.233 10.6826
head 18.0579 -10.075 3.18012
rclavicle 2.94698e-014 -6.36111e-014
rhumerus -60.0333 28.5323 -53.1317
rradius 44.6173
rwrist -4.95394
rhand -25.6514 -15.5295
rfingers 7.12502
rthumb 0.882421 -45.5074
lclavicle 2.94698e-014 -6.36111e-014
lhumerus -10.9219 -29.8338 51.7851
lradius 94.5022
lwrist -14.4939
lhand -30.6748 19.5602
lfingers 7.12502
lthumb -3.96909 49.5029
rfemur -102.558 -44.7961 87.0844
rtibia 1.08211
rfoot 383.548 41.5128
rtoes -11.0524
lfemur 2.13789 -15.3111 -14.5618
ltibia 19.761
lfoot -23.6911 -3.23642
ltoes -47.7009
257
root 7.1895 16.0512 3.89375 -257.433 -67.6973 -107.368
lowerback 23.0286 0.432833 -10.4379
upperback -3.407 -1.16359 10.0905
thorax -16.4949 1.08229 18.3356
lowerneck -10.214 -10.8262 -15.1718
upperneck 37.1922 -19.5447 9.82665
head 18.2586 -9.88784 2.95638
rclavicle 3.926e-015 1.05753e-013
rhumerus -59.7506 29.1948 -53.2628
rradius 43.2819
rwrist -5.45524
rhand -25.2298 -15.5802
rfingers 7.12502
rthumb 1.28967 -45.556
lclavicle 3.926e-015 1.05753e-013
lhumerus -10.9944 -28.4162 54.552
lradius 91.1737
lwrist -15.2587
lhand -30.5261 18.9285
lfingers 7.12502
lthumb -3.8255 48.8739
rfemur -97.1806 -45.9166 79.238
rtibia -0.787631
rfoot 377.891 39.5296
rtoes -30.1127
lfemur 0.239587 -15.2718 -13.1709
ltibia 21.2319
lfoot -22.9432 -4.351
ltoes -47.1767
258
root 7.17883 16.0431 3.87363 -260.333 -66.7148 -104.139
lowerback 22.7024 0.0700183 -9.60816
upperback -3.6198 -1.37898 10.3061
thorax -16.5058 0.921063 18.178
lowerneck -10.2629 -10.8344 -15.3957
upperneck 36.9553 -19.1594 9.48672
head 18.031 -9.7736 2.92885
rclavicle -6.09275e-014 8.26944e-014
rhumerus -58.8762 29.2876 -52.7387
rradius 42.2756
rwrist -4.79617
rhand -24.7524 -15.3388
rfingers 7.12502
rthumb 1.75073 -45.3113
lclavicle -6.09275e-014 8.26944e-014
lhumerus -10.5737 -27.5625 56.4804
lradius 88.8275
lwrist -16.503
lhand -30.5218 18.657
lfingers 7.12502
lthumb -3.82136 48.6025
rfemur -79.764 -44.7156 51.0489
rtibia 2.46863
rfoot 373.214 18.5077
rtoes 6.92418
lfemur -1.3076 -15.1616 -11.3113
ltibia 22.9735
lfoot -22.2568 -5.57981
ltoes -46.9374
